<svg width="48" height="48" xmlns="http://www.w3.org/2000/svg">

 <g>
  <title>background</title>
  <rect fill="none" id="canvas_background" height="402" width="582" y="-1" x="-1"/>
 </g>
 <g>
  <title>Layer 1</title>
  <path id="svg_2" fill="#04a728" d="m31.92529,22.74756l-2.11786,-0.23932c-0.13806,-0.56036 -0.35303,-1.08813 -0.6424,-1.5777l1.31934,-1.65271c0.31543,-0.39502 0.28467,-0.96387 -0.07129,-1.32324l-0.3667,-0.36963c-0.3584,-0.36084 -0.92773,-0.39746 -1.32764,-0.0791l-1.64514,1.30609c-0.51428,-0.31042 -1.04895,-0.55225 -1.60339,-0.68939l-0.22852,-2.04688c-0.05615,-0.50488 -0.48193,-0.88574 -0.99023,-0.88574l-0.51416,0c-0.50781,0 -0.93359,0.38037 -0.98975,0.88477l-0.22705,2.01465c-0.60547,0.14062 -1.16748,0.36572 -1.67676,0.67139l-1.56299,-1.25195c-0.39795,-0.31836 -0.96826,-0.28662 -1.32764,0.07275l-0.37207,0.37207c-0.35889,0.35938 -0.39062,0.9292 -0.07373,1.32617l1.23047,1.54004c-0.3335,0.53223 -0.57666,1.10547 -0.7251,1.71045l-1.93848,0.21729c-0.50391,0.05713 -0.88428,0.48291 -0.88428,0.99023l0,0.51416c0,0.50732 0.38037,0.93311 0.88477,0.99023l1.9375,0.21729c0.15039,0.62012 0.39062,1.19727 0.71631,1.72021l-1.22314,1.53955c-0.31543,0.39844 -0.28174,0.96875 0.0791,1.32666l0.37012,0.36719c0.19336,0.19141 0.44727,0.28906 0.70166,0.28906c0.21924,0 0.43896,-0.07227 0.62158,-0.21826l1.54688,-1.23584c0.52277,0.31171 1.09503,0.52338 1.69385,0.66364l0.22852,2.0141c0.05713,0.50391 0.48291,0.88428 0.98975,0.88428l0.51514,0c0.50732,0 0.93311,-0.38037 0.99023,-0.88525l0.2301,-2.05066c0.57428,-0.14661 1.1181,-0.3772 1.62494,-0.6897l1.6225,1.29749c0.18311,0.14648 0.40283,0.21826 0.62207,0.21826c0.25586,0 0.51074,-0.09814 0.70459,-0.29199l0.36377,-0.36377c0.35742,-0.35791 0.39014,-0.92725 0.0752,-1.32373l-1.31097,-1.65137c0.29071,-0.49188 0.50586,-1.02307 0.64325,-1.58789l2.10815,-0.23877c0.50391,-0.05713 0.88428,-0.48291 0.88428,-0.98975l0,-0.51564c-0.00001,-0.50781 -0.38038,-0.93359 -0.88478,-0.98974zm-4.89355,1.26123c0,1.71094 -1.39209,3.10303 -3.10303,3.10303c-1.71533,0 -3.11084,-1.39209 -3.11084,-3.10303c0,-1.71533 1.39551,-3.11084 3.11084,-3.11084c1.71094,0 3.10303,1.39551 3.10303,3.11084z"/>
 </g>
</svg>